# xmcd
#
# Track frame offsets: 
#        150
#        14517
#        25164
#        36571
#        50709
#        59452
#        73079
#        82452
#        97343
#        109395
#        122818
#        133073
#        146894
#        160327
#        171828
#        186818
#        201830
#        221193
#        230482
#        257024
#        270880
#        287473
#
# Disc length: 4121 seconds
#
# Revision: 0
# Processed by: cddbd v1.5.1PL2 Copyright (c) Steve Scherf et al.
# Submitted via: ExactAudioCopy v0.95a4
#
DISCID=65101716
DTITLE=Uncle Tupelo - Lounge Ax - Chicago - 11-8-92
DYEAR=1992
DGENRE=Alternative
TTITLE0=Grindstone
TTITLE1=No Depression
TTITLE2=Wait Up
TTITLE3=Shaky Ground
TTITLE4=Atomic Power
TTITLE5=Sauget Wind
TTITLE6=Nothing
TTITLE7=Postcard
TTITLE8=That Year
TTITLE9=Fall Down Easy
TTITLE10=Watch Me Fall
TTITLE11=Punch Drunk
TTITLE12=Cold Shoulder
TTITLE13=Discarded
TTITLE14=Looking For a Way Out
TTITLE15=Gun
TTITLE16=Factory Belt
TTITLE17=Satan, Your Kingdom Must Come Down
TTITLE18=Moonshiner
TTITLE19=Wipe the Clock
TTITLE20=I Wanna Destroy You
TTITLE21=Motion Pictures
EXTD=
EXTT0=
EXTT1=
EXTT2=
EXTT3=
EXTT4=
EXTT5=
EXTT6=
EXTT7=
EXTT8=
EXTT9=
EXTT10=
EXTT11=
EXTT12=
EXTT13=
EXTT14=
EXTT15=
EXTT16=
EXTT17=
EXTT18=
EXTT19=
EXTT20=
EXTT21=
PLAYORDER=
